<mxfile host="app.diagrams.net" modified="2023-05-11T18:51:17.940Z" agent="Mozilla/5.0 (Windows NT 10.0; Win64; x64) AppleWebKit/537.36 (KHTML, like Gecko) Chrome/113.0.0.0 Safari/537.36" etag="uMcn8G_Q0BrCu274Sfb1" version="21.2.9" type="device">
  <diagram name="Страница 1" id="9K-KnX845qHgIxXBuqfg">
    <mxGraphModel dx="1150" dy="1681" grid="1" gridSize="10" guides="1" tooltips="1" connect="1" arrows="1" fold="1" page="1" pageScale="1" pageWidth="827" pageHeight="1169" math="0" shadow="0">
      <root>
        <mxCell id="0" />
        <mxCell id="1" parent="0" />
        <mxCell id="5A5BHVSCgn10aoZK-eXY-1" value="Angular" style="rounded=0;whiteSpace=wrap;html=1;" parent="1" vertex="1">
          <mxGeometry x="40" y="60" width="120" height="60" as="geometry" />
        </mxCell>
        <mxCell id="5A5BHVSCgn10aoZK-eXY-2" value="Clear Node.js http-server" style="rounded=0;whiteSpace=wrap;html=1;" parent="1" vertex="1">
          <mxGeometry x="40" y="160" width="120" height="60" as="geometry" />
        </mxCell>
        <mxCell id="5A5BHVSCgn10aoZK-eXY-3" value="" style="endArrow=classic;html=1;rounded=0;exitX=1;exitY=0.5;exitDx=0;exitDy=0;" parent="1" source="5A5BHVSCgn10aoZK-eXY-1" target="5A5BHVSCgn10aoZK-eXY-4" edge="1">
          <mxGeometry width="50" height="50" relative="1" as="geometry">
            <mxPoint x="250" y="190" as="sourcePoint" />
            <mxPoint x="240" y="90" as="targetPoint" />
          </mxGeometry>
        </mxCell>
        <mxCell id="5A5BHVSCgn10aoZK-eXY-4" value="html,css,js" style="rounded=0;whiteSpace=wrap;html=1;" parent="1" vertex="1">
          <mxGeometry x="180" y="60" width="120" height="60" as="geometry" />
        </mxCell>
        <mxCell id="5A5BHVSCgn10aoZK-eXY-5" value="" style="endArrow=none;dashed=1;html=1;dashPattern=1 3;strokeWidth=2;rounded=0;" parent="1" edge="1">
          <mxGeometry width="50" height="50" relative="1" as="geometry">
            <mxPoint x="520" y="520" as="sourcePoint" />
            <mxPoint x="520" as="targetPoint" />
          </mxGeometry>
        </mxCell>
        <mxCell id="5A5BHVSCgn10aoZK-eXY-6" value="" style="endArrow=classic;html=1;rounded=0;exitX=1;exitY=0.5;exitDx=0;exitDy=0;entryX=0;entryY=0.5;entryDx=0;entryDy=0;" parent="1" source="5A5BHVSCgn10aoZK-eXY-2" target="5A5BHVSCgn10aoZK-eXY-7" edge="1">
          <mxGeometry width="50" height="50" relative="1" as="geometry">
            <mxPoint x="300" y="190" as="sourcePoint" />
            <mxPoint x="180" y="190" as="targetPoint" />
            <Array as="points">
              <mxPoint x="170" y="190" />
            </Array>
          </mxGeometry>
        </mxCell>
        <mxCell id="5A5BHVSCgn10aoZK-eXY-7" value="Source code" style="rounded=0;whiteSpace=wrap;html=1;" parent="1" vertex="1">
          <mxGeometry x="560" y="160" width="120" height="60" as="geometry" />
        </mxCell>
        <mxCell id="5A5BHVSCgn10aoZK-eXY-9" value="" style="endArrow=classic;html=1;rounded=0;exitX=1;exitY=0.5;exitDx=0;exitDy=0;entryX=0;entryY=0.5;entryDx=0;entryDy=0;" parent="1" source="5A5BHVSCgn10aoZK-eXY-4" target="5A5BHVSCgn10aoZK-eXY-10" edge="1">
          <mxGeometry width="50" height="50" relative="1" as="geometry">
            <mxPoint x="600" y="190" as="sourcePoint" />
            <mxPoint x="520" y="90" as="targetPoint" />
          </mxGeometry>
        </mxCell>
        <mxCell id="5A5BHVSCgn10aoZK-eXY-10" value="html,css,js" style="rounded=0;whiteSpace=wrap;html=1;" parent="1" vertex="1">
          <mxGeometry x="560" y="60" width="120" height="60" as="geometry" />
        </mxCell>
        <mxCell id="5A5BHVSCgn10aoZK-eXY-11" value="Client PC" style="text;html=1;strokeColor=none;fillColor=none;align=center;verticalAlign=middle;whiteSpace=wrap;rounded=0;" parent="1" vertex="1">
          <mxGeometry x="680" width="60" height="30" as="geometry" />
        </mxCell>
        <mxCell id="5A5BHVSCgn10aoZK-eXY-12" value="Develop PC" style="text;html=1;strokeColor=none;fillColor=none;align=center;verticalAlign=middle;whiteSpace=wrap;rounded=0;" parent="1" vertex="1">
          <mxGeometry x="200" width="60" height="30" as="geometry" />
        </mxCell>
        <mxCell id="5A5BHVSCgn10aoZK-eXY-13" value="Wallpaper package" style="rounded=0;whiteSpace=wrap;html=1;" parent="1" vertex="1">
          <mxGeometry x="40" y="280" width="120" height="60" as="geometry" />
        </mxCell>
        <mxCell id="5A5BHVSCgn10aoZK-eXY-14" value="Windows wallpaper executable" style="rounded=0;whiteSpace=wrap;html=1;" parent="1" vertex="1">
          <mxGeometry x="40" y="400" width="120" height="60" as="geometry" />
        </mxCell>
        <mxCell id="5A5BHVSCgn10aoZK-eXY-15" value="Linux wallpaper executable" style="rounded=0;whiteSpace=wrap;html=1;" parent="1" vertex="1">
          <mxGeometry x="200" y="400" width="120" height="60" as="geometry" />
        </mxCell>
        <mxCell id="nhuicsteA5tGHjoV--mt-2" value="" style="endArrow=classic;html=1;rounded=0;exitX=0.5;exitY=1;exitDx=0;exitDy=0;entryX=0.5;entryY=0;entryDx=0;entryDy=0;" parent="1" source="5A5BHVSCgn10aoZK-eXY-13" target="5A5BHVSCgn10aoZK-eXY-14" edge="1">
          <mxGeometry width="50" height="50" relative="1" as="geometry">
            <mxPoint x="400" y="400" as="sourcePoint" />
            <mxPoint x="450" y="350" as="targetPoint" />
          </mxGeometry>
        </mxCell>
        <mxCell id="nhuicsteA5tGHjoV--mt-3" value="" style="endArrow=classic;html=1;rounded=0;exitX=0.5;exitY=1;exitDx=0;exitDy=0;entryX=0.5;entryY=0;entryDx=0;entryDy=0;" parent="1" source="5A5BHVSCgn10aoZK-eXY-13" target="5A5BHVSCgn10aoZK-eXY-15" edge="1">
          <mxGeometry width="50" height="50" relative="1" as="geometry">
            <mxPoint x="400" y="400" as="sourcePoint" />
            <mxPoint x="450" y="350" as="targetPoint" />
          </mxGeometry>
        </mxCell>
        <mxCell id="nhuicsteA5tGHjoV--mt-5" value="" style="endArrow=classic;html=1;rounded=0;exitX=0.5;exitY=1;exitDx=0;exitDy=0;entryX=0.5;entryY=0;entryDx=0;entryDy=0;" parent="1" source="5A5BHVSCgn10aoZK-eXY-2" target="5A5BHVSCgn10aoZK-eXY-13" edge="1">
          <mxGeometry width="50" height="50" relative="1" as="geometry">
            <mxPoint x="400" y="400" as="sourcePoint" />
            <mxPoint x="450" y="350" as="targetPoint" />
          </mxGeometry>
        </mxCell>
        <mxCell id="nhuicsteA5tGHjoV--mt-6" value="Wallpaper package" style="rounded=0;whiteSpace=wrap;html=1;" parent="1" vertex="1">
          <mxGeometry x="560" y="280" width="120" height="60" as="geometry" />
        </mxCell>
        <mxCell id="nhuicsteA5tGHjoV--mt-7" value="Windows wallpaper executable" style="rounded=0;whiteSpace=wrap;html=1;" parent="1" vertex="1">
          <mxGeometry x="560" y="400" width="120" height="60" as="geometry" />
        </mxCell>
        <mxCell id="nhuicsteA5tGHjoV--mt-8" value="Linux wallpaper executable" style="rounded=0;whiteSpace=wrap;html=1;" parent="1" vertex="1">
          <mxGeometry x="720" y="400" width="120" height="60" as="geometry" />
        </mxCell>
        <mxCell id="nhuicsteA5tGHjoV--mt-10" value="" style="endArrow=classic;html=1;rounded=0;exitX=0.5;exitY=1;exitDx=0;exitDy=0;entryX=0.5;entryY=0;entryDx=0;entryDy=0;" parent="1" source="nhuicsteA5tGHjoV--mt-6" target="nhuicsteA5tGHjoV--mt-7" edge="1">
          <mxGeometry width="50" height="50" relative="1" as="geometry">
            <mxPoint x="920" y="400" as="sourcePoint" />
            <mxPoint x="970" y="350" as="targetPoint" />
          </mxGeometry>
        </mxCell>
        <mxCell id="nhuicsteA5tGHjoV--mt-11" value="" style="endArrow=classic;html=1;rounded=0;exitX=0.5;exitY=1;exitDx=0;exitDy=0;entryX=0.5;entryY=0;entryDx=0;entryDy=0;" parent="1" source="nhuicsteA5tGHjoV--mt-6" target="nhuicsteA5tGHjoV--mt-8" edge="1">
          <mxGeometry width="50" height="50" relative="1" as="geometry">
            <mxPoint x="920" y="400" as="sourcePoint" />
            <mxPoint x="970" y="350" as="targetPoint" />
          </mxGeometry>
        </mxCell>
        <mxCell id="nhuicsteA5tGHjoV--mt-13" value="" style="endArrow=classic;html=1;rounded=0;exitX=0.5;exitY=1;exitDx=0;exitDy=0;entryX=0.5;entryY=0;entryDx=0;entryDy=0;" parent="1" source="5A5BHVSCgn10aoZK-eXY-7" target="nhuicsteA5tGHjoV--mt-6" edge="1">
          <mxGeometry width="50" height="50" relative="1" as="geometry">
            <mxPoint x="660" y="310" as="sourcePoint" />
            <mxPoint x="710" y="260" as="targetPoint" />
          </mxGeometry>
        </mxCell>
        <mxCell id="nhuicsteA5tGHjoV--mt-14" value="Node.js binary" style="rounded=0;whiteSpace=wrap;html=1;" parent="1" vertex="1">
          <mxGeometry x="720" y="160" width="120" height="60" as="geometry" />
        </mxCell>
        <mxCell id="nhuicsteA5tGHjoV--mt-15" value="" style="endArrow=classic;html=1;rounded=0;exitX=1;exitY=0.5;exitDx=0;exitDy=0;entryX=0;entryY=0.5;entryDx=0;entryDy=0;" parent="1" source="5A5BHVSCgn10aoZK-eXY-7" target="nhuicsteA5tGHjoV--mt-14" edge="1">
          <mxGeometry width="50" height="50" relative="1" as="geometry">
            <mxPoint x="660" y="310" as="sourcePoint" />
            <mxPoint x="710" y="260" as="targetPoint" />
          </mxGeometry>
        </mxCell>
        <mxCell id="nhuicsteA5tGHjoV--mt-16" value="" style="endArrow=classic;html=1;rounded=0;exitX=0.5;exitY=0;exitDx=0;exitDy=0;entryX=0.5;entryY=1;entryDx=0;entryDy=0;" parent="1" source="5A5BHVSCgn10aoZK-eXY-7" target="5A5BHVSCgn10aoZK-eXY-10" edge="1">
          <mxGeometry width="50" height="50" relative="1" as="geometry">
            <mxPoint x="660" y="310" as="sourcePoint" />
            <mxPoint x="710" y="260" as="targetPoint" />
          </mxGeometry>
        </mxCell>
      </root>
    </mxGraphModel>
  </diagram>
</mxfile>
